<?xml version="1.0" encoding="utf-8"?>
<!-- Generator: Adobe Illustrator 25.0.1, SVG Export Plug-In . SVG Version: 6.00 Build 0)  -->
<svg version="1.0" id="Layer_1" xmlns="http://www.w3.org/2000/svg" xmlns:xlink="http://www.w3.org/1999/xlink" x="0px" y="0px"
	 viewBox="0 0 249.4 166" style="enable-background:new 0 0 249.4 166;" xml:space="preserve">
<style type="text/css">
	.st0{fill:#51B400;}
	.st1{fill:#9D9C9D;}
</style>
<path class="st0" d="M54.9,46h0.4c4.6,0.4,8.6,3.5,10.2,7.9c0.9,2.3,0.2,5.1,1.7,7.2c1.9,3,6.7,3.6,9.1,0.9c2.4-2.8,4.7-5.8,7.1-8.7
	c0.5-0.8,1.4-1.3,2.4-1.4c3.4,0.3,6.4,2.5,7.8,5.6c0.7,1.6,1,3.3,0.9,5.1c0,16,0,31.9,0,47.8c-0.1,4.7-3.5,8.7-8.2,9.6H34.4
	c-4.5-0.7-8-4.3-8.4-8.8V60.8c0.3-4.6,3.9-8.4,8.5-9c1.1,0,2.1,0.5,2.6,1.4c2,2.5,4,5,6,7.5c0.8,1.2,1.9,2.1,3.3,2.5
	c3.1,1,6.4-0.6,7.5-3.7c0.2-0.5,0.3-1.1,0.3-1.6c0-3.8,0-7.6,0-11.3L54.9,46 M35.9,90c0,5.9,0,11.8,0,17.7c0,0.6,0,1.3,0.1,1.9
	c0.4,0.6,1.2,0.9,1.9,0.8c4.6,0,9.3,0,13.9,0c1.3,0,2.6,0.4,3.7,1.2c1.4,1,2,2.7,3.4,3.8c1.2,0.2,2.4,0.2,3.6-0.1
	c0.9-0.4,1.4-1.3,2-2.1c1.2-1.8,3.3-2.9,5.5-2.9h10c1.4,0.1,2.9,0,4.3-0.4c0.3-0.7,0.4-1.5,0.4-2.3c0-5.9,0-11.9,0-17.8
	c0.1-0.8-0.5-1.5-1.4-1.6c-0.1,0-0.1,0-0.2,0c-4.4,0-8.7,0-13.1,0c-1.6,0-3.1,0.5-4.3,1.6c-1.2,1-1.6,2.8-3.2,3.4
	c-1.6,0.6-4,0.4-4.9-1.3c-1.1-2.1-3.3-3.5-5.7-3.6c-4.9,0-9.8,0-14.6,0c-0.9-0.1-1.4,0.9-1.3,1.6L35.9,90z"/>
<path class="st1" d="M127.7,72.7h2.5v2.4h-2.5V72.7 M172.1,72.7h2.5v2.4h-2.5V72.7 M184.7,72.7h2.4c0,5.1,0,10.2,0,15.3h-2.4
	c0-0.3,0-1,0.1-1.4c-1.8,2.6-6.2,2.1-7.7-0.6c-0.8-1.5-1.1-3.3-0.8-5c0.2-2,1.5-3.6,3.4-4.2c1.8-0.5,3.8,0,5.1,1.4
	C184.8,76.5,184.8,74.6,184.7,72.7 M179.4,79.9c-1.2,2-0.8,4.6,0.8,6.2c1,0.3,2,0.2,2.9-0.1c1.9-1.3,2.1-4,1.1-5.9
	c-0.8-1.4-2.5-1.9-3.9-1.1C180,79.3,179.6,79.6,179.4,79.9 M208.7,72.7h2.5c0,5.1,0,10.2,0,15.3h-2.4c0-0.5,0-0.9,0-1.3
	c-1.9,2.7-6.6,2-7.9-0.9c-1.1-2.4-1-5.7,0.8-7.8c2-1.9,5.1-1.8,6.9,0.2c0,0,0,0,0.1,0.1C208.8,76.4,208.8,74.6,208.7,72.7
	 M204.9,78.7c-2.3,0.8-2.5,4-1.7,5.9c0.7,1.4,2.4,2,3.8,1.4c0.4-0.2,0.7-0.4,1-0.7c1-1.5,1.2-3.4,0.5-5
	C207.8,79,206.3,78.3,204.9,78.7 M104.1,76.9h2.5c0,2.1,0,4.3,0,6.4c-0.1,1,0.2,2,0.9,2.7c0.9,0.4,1.9,0.3,2.8-0.1
	c0.8-0.6,1.1-1.6,1-2.6c0-2.2,0-4.3,0-6.4h2.5c0,3.7,0,7.4,0,11c-0.8,0-1.7,0-2.6,0l0.3-1.3h-0.3c-1.4,1.9-4,2.3-5.9,0.9
	c-0.1-0.1-0.3-0.2-0.4-0.4c-0.7-1-1.1-2.2-1-3.4C104,81.5,104,79.2,104.1,76.9 M118.2,78.5c1.6-2.5,5.9-2.6,7.1,0.2
	c0.7,3,0.2,6.2,0.3,9.2h-2.4c0-2.3,0-4.6,0-7c0.1-0.8-0.3-1.6-1-2.1c-1.3-0.6-2.8-0.1-3.5,1.1c-0.1,0.2-0.2,0.4-0.2,0.6
	c-0.2,2.4,0,4.9-0.1,7.3h-2.5c0-3.7,0-7.4,0-11h2.4C118.3,77.3,118.3,78.1,118.2,78.5 M127.7,77h2.5v11h-2.5
	C127.7,84.3,127.7,80.6,127.7,77 M131.2,77h2.8c0.9,2.8,1.9,5.7,2.8,8.5c0.8-2.9,1.8-5.7,2.7-8.5h2.6c-1.3,3.7-2.6,7.4-4,11h-2.8
	C133.9,84.3,132.6,80.6,131.2,77 M144.5,77.8c2.2-1.8,5.5-1.4,7.3,0.8c1,1.3,1.4,3,1.3,4.6c-2.8,0-5.5,0-8.3,0
	c0.2,1.4,0.9,3.1,2.5,3.1c1.4,0.2,2.7-0.5,3.3-1.7c0.8,0,1.5,0,2.2,0c-0.8,3.8-6.1,5-8.8,2.4C141.7,84.3,141.9,80.2,144.5,77.8
	C144.5,77.7,144.5,77.7,144.5,77.8 M144.9,81.4c1.9,0,3.8,0,5.8,0c-0.3-1.3-1.2-3-2.8-2.8C146.2,78.5,145,80,144.9,81.4 M156.6,79
	c0.7-1.6,2.5-2.6,4.3-2.4c0,0.8,0,1.6,0,2.4c-1.6-0.4-3.3,0.6-3.8,2.2c-0.2,2.3-0.3,4.5-0.2,6.8h-2.5c0-3.7,0-7.4,0-11h2.4
	C156.8,77.7,156.7,78.4,156.6,79 M161.2,78.9c0.6-1.2,1.8-2,3.2-2.1c1.5-0.3,3-0.1,4.3,0.6c1,0.6,1.3,1.7,1.7,2.7h-2.6
	c-0.1-0.3-0.3-0.7-0.4-1.1c-1.2-0.6-2.6-0.6-3.8,0.1c0,0.3,0,0.8,0,1.1c1.9,1.3,4.4,0.9,6.2,2.3c1.2,1.2,1.2,3.1,0.1,4.3
	c-0.1,0.1-0.3,0.3-0.5,0.4c-2.2,1.4-4.9,1.4-7.1,0.1c-0.9-0.7-1.5-1.8-1.5-3c0.8,0,1.6,0,2.4,0c0.4,0.6,0.7,1.6,1.6,1.7
	c1,0.3,2,0.2,2.9-0.1c0.5-0.3,0.7-1,0.4-1.5c-0.1-0.2-0.3-0.3-0.5-0.4c-1.6-0.9-3.7-0.7-5.3-1.7C161.2,81.6,160.8,80.2,161.2,78.9
	 M172.1,77h2.5v11h-2.5C172.1,84.3,172.1,80.6,172.1,77 M190.6,77.7c1.8-1.1,4-1.3,6-0.5c1.1,0.4,1.9,1.3,2,2.4
	c0.1,2.2-0.1,4.4,0.1,6.6c0.4,0.1,0.7,0.2,1.1,0.3v1.7c-1.3,0.4-2.8,0.4-3.6-0.9c-1.8,1.2-4.4,1.7-6.3,0.3c-1.4-1.1-1.6-3.1-0.5-4.5
	c0.2-0.3,0.5-0.6,0.9-0.8c1.8-0.9,3.9-0.7,5.8-1.2c0.3-0.6,0.3-1.4,0-2c-1.6-0.7-4-0.8-4.5,1.2H189
	C189.3,79.4,189.6,78.2,190.6,77.7 M192.2,83.5c-0.8,0.3-1.2,1.2-0.8,2c0.1,0.3,0.3,0.5,0.5,0.6c1.2,0.5,2.6,0.3,3.6-0.4
	c0.9-0.7,0.5-2,0.6-3C194.8,83,193.5,83.1,192.2,83.5 M213.1,80.3c0.8-2.5,3.3-4,5.9-3.5c3,0.4,4.9,3.7,4.3,6.6v0.2
	c-2.1-0.4-4.4-0.1-6.6-0.2c-0.5,0.1-1.4-0.2-1.5,0.5c0.2,1.6,1.7,2.7,3.3,2.5c0.1,0,0.1,0,0.2,0c1.1,0,1.7-0.9,2.3-1.7h2.4v0.6
	c-0.8,0.8-1.3,1.9-2.3,2.5c-2,1.1-4.4,1-6.2-0.3C212.8,85.7,212.4,82.6,213.1,80.3 M215.2,81.5h5.8c-0.3-1.3-1.1-2.8-2.6-2.8
	C216.7,78.5,215.5,80,215.2,81.5 M112.6,95.1h2.5c0,5.1,0,10.2,0,15.3c-0.8,0-1.5,0-2.3,0c0-0.4,0-1.1,0-1.4c-1.8,2.5-6,2.2-7.6-0.4
	c-1.5-2.5-1.4-5.6,0.3-8c1.8-2,4.8-2.2,6.8-0.4c0.2,0.1,0.3,0.3,0.4,0.4C112.5,98.8,112.6,96.9,112.6,95.1 M108.5,101.1
	c-2.2,1-2.5,4.3-1.4,6.2c0.8,1.3,2.6,1.7,3.9,0.9c0.2-0.1,0.3-0.2,0.4-0.3c1.2-1.5,1.5-3.5,0.7-5.2
	C111.6,101.3,110,100.6,108.5,101.1 M167.5,95.1h2.6c0,0.8,0,1.6,0,2.4h-2.6L167.5,95.1 M118.7,100.2c2.3-1.8,5.6-1.4,7.4,0.8
	c0,0,0.1,0.1,0.1,0.1c0.9,1.3,1.3,2.9,1.2,4.4c-2.8,0-5.5,0-8.2,0c0.1,1,0.5,1.9,1.2,2.6c1.3,1,3.2,0.7,4.2-0.7
	c0.1-0.2,0.2-0.4,0.3-0.6h2.3c-0.7,4-6.3,5-8.9,2.3C115.9,106.5,116.2,102.6,118.7,100.2 M119.1,103.8c1.9,0,3.9,0,5.8,0
	c-0.3-1.2-1-2.7-2.5-2.8c-1.6-0.2-3.1,1-3.3,2.7C119.1,103.7,119.1,103.8,119.1,103.8 M134.8,100.4c1.3-1.4,3.5-1.5,5.2-1.3
	c1.6,0,3,1.2,3.3,2.8c0.2,2.3-0.1,4.6,0.1,6.8h1.1c0,0.6,0,1.2,0,1.8c-1.2,0.2-3,0.5-3.5-1c-1.7,1.3-3.9,1.5-5.9,0.7
	c-2.2-0.9-2.3-4.7-0.1-5.6c1.8-0.8,3.9-0.6,5.8-1.2c0-0.6,0-1.2,0-1.8c-1.6-0.9-4.1-0.8-4.6,1.2h-2.5
	C133.9,102,134.3,101.2,134.8,100.4 M136.8,105.9c-0.7,0.3-1,1.1-0.7,1.8c0.1,0.4,0.4,0.6,0.8,0.8c1.2,0.6,2.5,0,3.6-0.5
	c0.3-1,0.5-2,0.4-3.1C139.6,105.5,138.1,105.5,136.8,105.9 M144.3,99.4c0.9,0,1.8,0,2.7,0c1,2.8,1.9,5.7,2.9,8.5
	c0.8-2.9,1.8-5.7,2.6-8.5h2.6c-1.4,3.7-2.7,7.4-4,11.1c-0.9,0-1.9,0-2.8,0c-1.3-3.7-2.7-7.4-4-11 M157.9,100.2
	c2.4-1.7,5.6-1.1,7.3,1.2c0,0,0.1,0.1,0.1,0.1c0.8,1.3,1.1,2.7,1,4.2c-2.8,0-5.5,0-8.3,0c0.2,1.2,0.6,2.6,1.9,3
	c1.5,0.6,3.2-0.1,3.8-1.6h2.3c-0.8,3.8-6.1,5-8.8,2.4c-2.4-2.6-2.3-6.7,0.4-9.1C157.7,100.3,157.8,100.3,157.9,100.2 M158,104.1h5.8
	c-0.3-1.4-1.3-2.9-2.9-2.8C159.3,101.3,158.1,102.5,158,104.1 M174.6,101.6c0.7-1.6,2.4-2.6,4.2-2.3c0,0.8,0,1.6,0,2.3
	c-1.6-0.4-3.3,0.5-3.8,2.1c-0.5,2.2-0.1,4.6-0.2,6.9h-2.5c0-3.7,0-7.4,0-11.1h2.4C174.6,100.2,174.6,100.9,174.6,101.6 M182.2,99.4
	c1.9-0.6,4-0.2,5.6,1.1c2,1.8,2.3,5.1,1.1,7.5c-1.6,3.5-7.2,3.8-9.4,0.7S178.4,100.5,182.2,99.4 M183,101.4
	c-3.2,1.4-2.7,7.4,1.1,7.6c2.6-0.1,3.6-3.3,2.8-5.4c-0.3-1.6-1.9-2.7-3.6-2.3C183.2,101.3,183.1,101.3,183,101.4 M167.6,110.6
	c0-3.7,0-7.4,0-11.1h2.6c0,3.7,0,7.4,0,11.1L167.6,110.6z"/>
</svg>
